<svg width="32" height="34" viewBox="0 0 32 34" fill="none" xmlns="http://www.w3.org/2000/svg">
<path d="M14.3333 18.1333H17V11.4667H14.3333V18.1333ZM15.6667 22.1333C16.0444 22.1333 16.3611 22.0056 16.6167 21.75C16.8722 21.4945 17 21.1778 17 20.8C17 20.4222 16.8722 20.1056 16.6167 19.85C16.3611 19.5945 16.0444 19.4667 15.6667 19.4667C15.2889 19.4667 14.9722 19.5945 14.7167 19.85C14.4611 20.1056 14.3333 20.4222 14.3333 20.8C14.3333 21.1778 14.4611 21.4945 14.7167 21.75C14.9722 22.0056 15.2889 22.1333 15.6667 22.1333ZM5 26.1333V23.4667H7.66667V14.1333C7.66667 12.2889 8.22222 10.65 9.33333 9.21667C10.4444 7.78334 11.8889 6.84445 13.6667 6.40001V5.46667C13.6667 4.91112 13.8611 4.4389 14.25 4.05001C14.6389 3.66112 15.1111 3.46667 15.6667 3.46667C16.2222 3.46667 16.6944 3.66112 17.0833 4.05001C17.4722 4.4389 17.6667 4.91112 17.6667 5.46667V6.40001C19.4444 6.84445 20.8889 7.78334 22 9.21667C23.1111 10.65 23.6667 12.2889 23.6667 14.1333V23.4667H26.3333V26.1333H5ZM15.6667 30.1333C14.9333 30.1333 14.3056 29.8722 13.7833 29.35C13.2611 28.8278 13 28.2 13 27.4667H18.3333C18.3333 28.2 18.0722 28.8278 17.55 29.35C17.0278 29.8722 16.4 30.1333 15.6667 30.1333ZM10.3333 23.4667H21V14.1333C21 12.6667 20.4778 11.4111 19.4333 10.3667C18.3889 9.32223 17.1333 8.80001 15.6667 8.80001C14.2 8.80001 12.9444 9.32223 11.9 10.3667C10.8556 11.4111 10.3333 12.6667 10.3333 14.1333V23.4667Z" fill="white"/>
</svg>
