<svg width="32" height="34" viewBox="0 0 32 34" fill="none" xmlns="http://www.w3.org/2000/svg">
<path d="M8.33333 30.0667C7.95556 30.0667 7.63889 29.9389 7.38333 29.6834C7.12778 29.4278 7 29.1111 7 28.7334V7.40002C7 7.02225 7.12778 6.70558 7.38333 6.45002C7.63889 6.19447 7.95556 6.06669 8.33333 6.06669H11V3.40002H16.3333V6.06669H19C19.3778 6.06669 19.6944 6.19447 19.95 6.45002C20.2056 6.70558 20.3333 7.02225 20.3333 7.40002V16.7334C18.1111 16.7556 16.2222 17.5389 14.6667 19.0834C13.1111 20.6278 12.3333 22.5111 12.3333 24.7334C12.3333 25.7556 12.5111 26.7222 12.8667 27.6334C13.2222 28.5445 13.7222 29.3556 14.3667 30.0667H8.33333ZM9.66667 14.0667H17.6667V8.73336H9.66667V14.0667ZM19.6667 30.0667V26.0667H16.3333L21 19.4V23.4H24.3333L19.6667 30.0667Z" fill="white"/>
</svg>
