<svg width="156" height="160" viewBox="0 0 156 160" fill="none" xmlns="http://www.w3.org/2000/svg">
<rect x="1" y="1" width="152.851" height="158" rx="4" stroke="white" stroke-width="2"/>
<path d="M33.3687 103.885C33.3687 103.333 33.8164 102.885 34.3687 102.885H43.2422C43.7945 102.885 44.2422 103.333 44.2422 103.885V136.667C44.2422 137.219 43.7945 137.667 43.2422 137.667H34.3687C33.8164 137.667 33.3687 137.219 33.3687 136.667V103.885Z" fill="white" stroke="white" stroke-width="2"/>
<path d="M21.5969 115.655C21.5969 115.103 22.0446 114.655 22.5969 114.655H55.3785C55.9308 114.655 56.3785 115.103 56.3785 115.655V124.529C56.3785 125.081 55.9308 125.529 55.3785 125.529H22.5969C22.0446 125.529 21.5969 125.081 21.5969 124.529V115.655Z" fill="white" stroke="white" stroke-width="2"/>
<rect x="13.1379" y="18.6552" width="51.7011" height="70.8276" rx="1" stroke="white" stroke-width="2"/>
<rect x="79.3455" y="1" width="36.6207" height="158" stroke="white" stroke-width="2"/>
<path d="M38.8052 104.092L42.1498 109.885H35.4605L38.8052 104.092Z" fill="#262626"/>
<path d="M38.803 136.828L35.4583 131.034H42.1476L38.803 136.828Z" fill="#262626"/>
<path d="M54.8035 120.46L49.0104 123.804V117.115L54.8035 120.46Z" fill="#262626"/>
<path d="M22.8054 120.092L28.5985 116.747L28.5985 123.436L22.8054 120.092Z" fill="#262626"/>
<rect x="85.4668" y="18.1552" width="24.7471" height="4.51724" fill="white" stroke="white"/>
<rect x="85.4668" y="26.615" width="24.7471" height="4.51724" fill="white" stroke="white"/>
<path d="M85.4668 43.5345H110.214V48.0517H85.4668V43.5345Z" fill="white" stroke="white"/>
<rect x="85.4668" y="77.3735" width="24.7471" height="4.51724" fill="white" stroke="white"/>
<rect x="85.4668" y="85.8334" width="24.7471" height="4.51724" fill="white" stroke="white"/>
<rect x="85.4668" y="94.2931" width="24.7471" height="4.51724" fill="white" stroke="white"/>
<rect x="85.4668" y="102.753" width="24.7471" height="4.51724" fill="white" stroke="white"/>
<rect x="85.4668" y="111.213" width="24.7471" height="4.51724" fill="white" stroke="white"/>
<rect x="85.4668" y="119.672" width="24.7471" height="4.51724" fill="white" stroke="white"/>
<rect x="85.4668" y="128.132" width="24.7471" height="4.51724" fill="white" stroke="white"/>
<rect x="85.4668" y="136.592" width="24.7471" height="4.51724" fill="white" stroke="white"/>
<rect x="85.4668" y="136.592" width="24.7471" height="4.51724" fill="white" stroke="white"/>
<rect x="85.4668" y="68.9138" width="24.7471" height="4.51724" fill="white" stroke="white"/>
<rect x="85.4668" y="60.454" width="24.7471" height="4.51724" fill="white" stroke="white"/>
<rect x="85.4668" y="51.9943" width="24.7471" height="4.51724" fill="white" stroke="white"/>
<rect x="85.4668" y="35.0747" width="24.7471" height="4.51724" fill="white" stroke="white"/>
<rect x="85.4668" y="18.1552" width="24.7471" height="4.51724" fill="white" stroke="white"/>
<rect x="85.4668" y="26.615" width="24.7471" height="4.51724" fill="white" stroke="white"/>
<path d="M85.4668 43.5345H110.214V48.0517H85.4668V43.5345Z" stroke="white"/>
<rect x="85.4668" y="77.3735" width="24.7471" height="4.51724" fill="white" stroke="white"/>
<rect x="85.4668" y="85.8334" width="24.7471" height="4.51724" fill="white" stroke="white"/>
<rect x="85.4668" y="94.2931" width="24.7471" height="4.51724" fill="white" stroke="white"/>
<rect x="85.4668" y="102.753" width="24.7471" height="4.51724" fill="white" stroke="white"/>
<rect x="85.4668" y="111.213" width="24.7471" height="4.51724" fill="white" stroke="white"/>
<rect x="85.4668" y="119.672" width="24.7471" height="4.51724" fill="white" stroke="white"/>
<rect x="85.4668" y="128.132" width="24.7471" height="4.51724" fill="white" stroke="white"/>
<rect x="85.4668" y="136.592" width="24.7471" height="4.51724" fill="white" stroke="white"/>
<rect x="85.4668" y="136.592" width="24.7471" height="4.51724" fill="white" stroke="white"/>
<rect x="85.4668" y="68.9138" width="24.7471" height="4.51724" stroke="white"/>
<rect x="85.4668" y="60.454" width="24.7471" height="4.51724" stroke="white"/>
<rect x="85.4668" y="51.9943" width="24.7471" height="4.51724" stroke="white"/>
<rect x="85.4668" y="35.0747" width="24.7471" height="4.51724" fill="white" stroke="white"/>
<rect x="123.349" y="18.1552" width="24.7471" height="4.51724" fill="white" stroke="white"/>
<rect x="123.349" y="26.615" width="24.7471" height="4.51724" fill="white" stroke="white"/>
<rect x="123.349" y="43.5345" width="24.7471" height="4.51724" fill="white" stroke="white"/>
<rect x="123.349" y="77.3735" width="24.7471" height="4.51724" fill="white" stroke="white"/>
<rect x="123.349" y="85.8334" width="24.7471" height="4.51724" fill="white" stroke="white"/>
<rect x="123.349" y="94.2931" width="24.7471" height="4.51724" fill="white" stroke="white"/>
<rect x="123.349" y="102.753" width="24.7471" height="4.51724" fill="white" stroke="white"/>
<rect x="123.349" y="111.213" width="24.7471" height="4.51724" fill="white" stroke="white"/>
<rect x="123.349" y="119.672" width="24.7471" height="4.51724" fill="white" stroke="white"/>
<rect x="123.349" y="128.132" width="24.7471" height="4.51724" fill="white" stroke="white"/>
<rect x="123.349" y="136.592" width="24.7471" height="4.51724" fill="white" stroke="white"/>
<rect x="123.349" y="136.592" width="24.7471" height="4.51724" fill="white" stroke="white"/>
<rect x="123.349" y="68.9138" width="24.7471" height="4.51724" fill="white" stroke="white"/>
<rect x="123.349" y="60.454" width="24.7471" height="4.51724" fill="white" stroke="white"/>
<rect x="123.349" y="51.9943" width="24.7471" height="4.51724" fill="white" stroke="white"/>
<rect x="123.349" y="35.0747" width="24.7471" height="4.51724" fill="white" stroke="white"/>
</svg>
