<svg width="44" height="44" viewBox="0 0 44 44" fill="none" xmlns="http://www.w3.org/2000/svg">
<path d="M16.94 44L15.84 37.07C15.1433 36.8133 14.41 36.465 13.64 36.025C12.87 35.585 12.1917 35.1267 11.605 34.65L5.115 37.62L0 28.6L5.94 24.255C5.86667 23.925 5.82083 23.5492 5.8025 23.1275C5.78417 22.7058 5.775 22.33 5.775 22C5.775 21.67 5.78417 21.2942 5.8025 20.8725C5.82083 20.4508 5.86667 20.075 5.94 19.745L0 15.4L5.115 6.38L11.605 9.35C12.1917 8.87333 12.87 8.415 13.64 7.975C14.41 7.535 15.1433 7.205 15.84 6.985L16.94 0H27.06L28.16 6.93C28.8567 7.18667 29.5992 7.52583 30.3875 7.9475C31.1758 8.36917 31.845 8.83667 32.395 9.35L38.885 6.38L44 15.4L38.06 19.635C38.1333 20.0017 38.1792 20.3958 38.1975 20.8175C38.2158 21.2392 38.225 21.6333 38.225 22C38.225 22.3667 38.2158 22.7517 38.1975 23.155C38.1792 23.5583 38.1333 23.9433 38.06 24.31L44 28.6L38.885 37.62L32.395 34.65C31.8083 35.1267 31.1392 35.5942 30.3875 36.0525C29.6358 36.5108 28.8933 36.85 28.16 37.07L27.06 44H16.94ZM19.58 40.7H24.42L25.19 34.54C26.4 34.2467 27.5458 33.7883 28.6275 33.165C29.7092 32.5417 30.69 31.79 31.57 30.91L37.4 33.44L39.6 29.48L34.43 25.685C34.5767 25.0617 34.6958 24.4475 34.7875 23.8425C34.8792 23.2375 34.925 22.6233 34.925 22C34.925 21.3767 34.8883 20.7625 34.815 20.1575C34.7417 19.5525 34.6133 18.9383 34.43 18.315L39.6 14.52L37.4 10.56L31.57 13.09C30.7267 12.1367 29.7733 11.3392 28.71 10.6975C27.6467 10.0558 26.4733 9.64333 25.19 9.46L24.42 3.3H19.58L18.81 9.46C17.5633 9.71667 16.3992 10.1567 15.3175 10.78C14.2358 11.4033 13.2733 12.1733 12.43 13.09L6.6 10.56L4.4 14.52L9.57 18.315C9.42333 18.9383 9.30417 19.5525 9.2125 20.1575C9.12083 20.7625 9.075 21.3767 9.075 22C9.075 22.6233 9.12083 23.2375 9.2125 23.8425C9.30417 24.4475 9.42333 25.0617 9.57 25.685L4.4 29.48L6.6 33.44L12.43 30.91C13.31 31.79 14.2908 32.5417 15.3725 33.165C16.4542 33.7883 17.6 34.2467 18.81 34.54L19.58 40.7ZM22 29.15C23.98 29.15 25.6667 28.4533 27.06 27.06C28.4533 25.6667 29.15 23.98 29.15 22C29.15 20.02 28.4533 18.3333 27.06 16.94C25.6667 15.5467 23.98 14.85 22 14.85C20.02 14.85 18.3333 15.5467 16.94 16.94C15.5467 18.3333 14.85 20.02 14.85 22C14.85 23.98 15.5467 25.6667 16.94 27.06C18.3333 28.4533 20.02 29.15 22 29.15Z" fill="#E8EAED"/>
</svg>
