<svg width="32" height="33" viewBox="0 0 32 33" fill="none" xmlns="http://www.w3.org/2000/svg">
<path d="M8.26672 10.6077C8.26672 10.6077 9.44819 9.47195 10.5422 9.46997C12.2775 9.46683 13.3613 11.8503 15.0934 11.7455C16.0851 11.6856 17.3689 10.6078 17.3689 10.6078" stroke="white" stroke-width="1.5"/>
<path d="M5.25 6.06665C5.25 5.65244 5.58579 5.31665 6 5.31665H26C26.4142 5.31665 26.75 5.65244 26.75 6.06665V26.0667C26.75 26.4809 26.4142 26.8167 26 26.8167H6C5.58579 26.8167 5.25 26.4809 5.25 26.0667V6.06665Z" stroke="white" stroke-width="2.5"/>
<path d="M6 26L25.5 6.5" stroke="white" stroke-width="2.5"/>
<path d="M15.8 20.4178H23.7645" stroke="white" stroke-width="1.5"/>
<path d="M15.8 22.6932H19.2134" stroke="white" stroke-width="1.5"/>
<path d="M20.3512 22.6932H23.7645" stroke="white" stroke-width="1.5"/>
</svg>
