<svg width="78" height="126" viewBox="0 0 78 126" fill="none" xmlns="http://www.w3.org/2000/svg">
<path d="M1.5 10.5C1.5 5.52944 5.52944 1.5 10.5 1.5H67.5C72.4706 1.5 76.5 5.52944 76.5 10.5V95.5C76.5 100.471 72.4706 104.5 67.5 104.5H10.5C5.52944 104.5 1.5 100.471 1.5 95.5V10.5Z" stroke="white" stroke-width="2"/>
<path d="M19.5 8.5H58.5V30.5C58.5 35.4706 54.4706 39.5 49.5 39.5H28.5C23.5294 39.5 19.5 35.4706 19.5 30.5V8.5Z" stroke="white" stroke-width="2"/>
<circle cx="38.5" cy="20.5" r="9" stroke="white" stroke-width="2"/>
<mask id="path-4-inside-1_91_98" fill="white">
<path d="M9.5 75.5C9.5 69.9772 13.9772 65.5 19.5 65.5H58.5C64.0228 65.5 68.5 69.9772 68.5 75.5V97.5H9.5V75.5Z"/>
</mask>
<path d="M7.5 75.5C7.5 68.8726 12.8726 63.5 19.5 63.5H58.5C65.1274 63.5 70.5 68.8726 70.5 75.5H66.5C66.5 71.0817 62.9183 67.5 58.5 67.5H19.5C15.0817 67.5 11.5 71.0817 11.5 75.5H7.5ZM68.5 97.5H9.5H68.5ZM7.5 97.5V75.5C7.5 68.8726 12.8726 63.5 19.5 63.5V67.5C15.0817 67.5 11.5 71.0817 11.5 75.5V97.5H7.5ZM58.5 63.5C65.1274 63.5 70.5 68.8726 70.5 75.5V97.5H66.5V75.5C66.5 71.0817 62.9183 67.5 58.5 67.5V63.5Z" fill="white" mask="url(#path-4-inside-1_91_98)"/>
<g filter="url(#filter0_d_91_98)">
<mask id="path-6-inside-2_91_98" fill="white">
<path d="M11.5 109.5H28.5V115.5C28.5 116.605 27.6046 117.5 26.5 117.5H13.5C12.3954 117.5 11.5 116.605 11.5 115.5V109.5Z"/>
</mask>
<path d="M11.5 109.5H28.5H11.5ZM30.5 115.5C30.5 117.709 28.7091 119.5 26.5 119.5H13.5C11.2909 119.5 9.5 117.709 9.5 115.5H13.5H26.5H30.5ZM13.5 119.5C11.2909 119.5 9.5 117.709 9.5 115.5V109.5H13.5V115.5V119.5ZM30.5 109.5V115.5C30.5 117.709 28.7091 119.5 26.5 119.5V115.5V109.5H30.5Z" fill="white" mask="url(#path-6-inside-2_91_98)"/>
</g>
<g filter="url(#filter1_d_91_98)">
<mask id="path-8-inside-3_91_98" fill="white">
<path d="M50.5 109.5H67.5V115.5C67.5 116.605 66.6046 117.5 65.5 117.5H52.5C51.3954 117.5 50.5 116.605 50.5 115.5V109.5Z"/>
</mask>
<path d="M50.5 109.5H67.5H50.5ZM69.5 115.5C69.5 117.709 67.7091 119.5 65.5 119.5H52.5C50.2909 119.5 48.5 117.709 48.5 115.5H52.5H65.5H69.5ZM52.5 119.5C50.2909 119.5 48.5 117.709 48.5 115.5V109.5H52.5V115.5V119.5ZM69.5 109.5V115.5C69.5 117.709 67.7091 119.5 65.5 119.5V115.5V109.5H69.5Z" fill="white" mask="url(#path-8-inside-3_91_98)"/>
</g>
<defs>
<filter id="filter0_d_91_98" x="7.5" y="109.5" width="25" height="16" filterUnits="userSpaceOnUse" color-interpolation-filters="sRGB">
<feFlood flood-opacity="0" result="BackgroundImageFix"/>
<feColorMatrix in="SourceAlpha" type="matrix" values="0 0 0 0 0 0 0 0 0 0 0 0 0 0 0 0 0 0 127 0" result="hardAlpha"/>
<feOffset dy="4"/>
<feGaussianBlur stdDeviation="2"/>
<feComposite in2="hardAlpha" operator="out"/>
<feColorMatrix type="matrix" values="0 0 0 0 0 0 0 0 0 0 0 0 0 0 0 0 0 0 0.25 0"/>
<feBlend mode="normal" in2="BackgroundImageFix" result="effect1_dropShadow_91_98"/>
<feBlend mode="normal" in="SourceGraphic" in2="effect1_dropShadow_91_98" result="shape"/>
</filter>
<filter id="filter1_d_91_98" x="46.5" y="109.5" width="25" height="16" filterUnits="userSpaceOnUse" color-interpolation-filters="sRGB">
<feFlood flood-opacity="0" result="BackgroundImageFix"/>
<feColorMatrix in="SourceAlpha" type="matrix" values="0 0 0 0 0 0 0 0 0 0 0 0 0 0 0 0 0 0 127 0" result="hardAlpha"/>
<feOffset dy="4"/>
<feGaussianBlur stdDeviation="2"/>
<feComposite in2="hardAlpha" operator="out"/>
<feColorMatrix type="matrix" values="0 0 0 0 0 0 0 0 0 0 0 0 0 0 0 0 0 0 0.25 0"/>
<feBlend mode="normal" in2="BackgroundImageFix" result="effect1_dropShadow_91_98"/>
<feBlend mode="normal" in="SourceGraphic" in2="effect1_dropShadow_91_98" result="shape"/>
</filter>
</defs>
</svg>
