<svg width="44" height="44" viewBox="0 0 44 44" fill="none" xmlns="http://www.w3.org/2000/svg">
<path d="M22 44C18.9933 44 16.1517 43.4225 13.475 42.2675C10.7983 41.1125 8.46083 39.5358 6.4625 37.5375C4.46417 35.5392 2.8875 33.2017 1.7325 30.525C0.5775 27.8483 0 25.0067 0 22C0 18.92 0.586667 16.0508 1.76 13.3925C2.93333 10.7342 4.51 8.415 6.49 6.435L8.8 8.745C7.07667 10.4317 5.72917 12.4117 4.7575 14.685C3.78583 16.9583 3.3 19.3967 3.3 22C3.3 27.17 5.12417 31.5792 8.7725 35.2275C12.4208 38.8758 16.83 40.7 22 40.7C27.2067 40.7 31.625 38.8758 35.255 35.2275C38.885 31.5792 40.7 27.17 40.7 22C40.7 19.3967 40.2233 16.9583 39.27 14.685C38.3167 12.4117 36.9783 10.4317 35.255 8.745L37.565 6.435C39.545 8.415 41.1125 10.7342 42.2675 13.3925C43.4225 16.0508 44 18.92 44 22C44 25.0067 43.4225 27.8483 42.2675 30.525C41.1125 33.2017 39.545 35.5392 37.565 37.5375C35.585 39.5358 33.2567 41.1125 30.58 42.2675C27.9033 43.4225 25.0433 44 22 44ZM20.35 24.2V0H23.65V24.2H20.35Z" fill="#E8EAED"/>
</svg>
