<svg width="16" height="16" viewBox="0 0 16 16" fill="none" xmlns="http://www.w3.org/2000/svg">
<g clip-path="url(#clip0_118_5217)">
<path d="M1.3335 12V14C1.3335 14.4 1.60016 14.6667 2.00016 14.6667H4.66683V12.6667H6.66683V10.6667H8.00016L8.9335 9.73332C9.86005 10.0561 10.8687 10.0548 11.7945 9.72982C12.7202 9.40479 13.5083 8.77521 14.0297 7.94407C14.5512 7.11293 14.7751 6.12943 14.6649 5.15448C14.5547 4.17952 14.1169 3.27082 13.4231 2.57703C12.7293 1.88324 11.8206 1.44544 10.8457 1.33524C9.87071 1.22505 8.88722 1.44898 8.05608 1.97041C7.22494 2.49184 6.59536 3.2799 6.27033 4.20566C5.9453 5.13143 5.94407 6.14009 6.26683 7.06665L1.3335 12Z" stroke="#525252" stroke-linecap="round" stroke-linejoin="round"/>
<path d="M11.0002 5.33333C11.1843 5.33333 11.3335 5.18409 11.3335 5C11.3335 4.8159 11.1843 4.66667 11.0002 4.66667C10.8161 4.66667 10.6668 4.8159 10.6668 5C10.6668 5.18409 10.8161 5.33333 11.0002 5.33333Z" stroke="#525252" stroke-linecap="round" stroke-linejoin="round"/>
</g>
<defs>
<clipPath id="clip0_118_5217">
<rect width="16" height="16" fill="white"/>
</clipPath>
</defs>
</svg>
