<svg width="191" height="160" viewBox="0 0 191 160" fill="none" xmlns="http://www.w3.org/2000/svg">
<rect x="26.0623" y="1" width="138.876" height="141.744" rx="4" stroke="white" stroke-width="2"/>
<path d="M26 32H165V37H26V32Z" fill="white"/>
<mask id="path-3-inside-1_280_938" fill="white">
<path d="M25.0623 146.933H28.6678C31.4292 146.933 33.6678 149.171 33.6678 151.933V160H30.0623C27.3008 160 25.0623 157.762 25.0623 155V146.933Z"/>
</mask>
<path d="M25.0623 146.933H33.6678H25.0623ZM33.6678 162H30.0623C26.1963 162 23.0623 158.866 23.0623 155H27.0623C27.0623 156.657 28.4054 158 30.0623 158H33.6678V162ZM30.0623 162C26.1963 162 23.0623 158.866 23.0623 155V146.933H27.0623V155C27.0623 156.657 28.4054 158 30.0623 158V162ZM33.6678 146.933V160V146.933Z" fill="white" mask="url(#path-3-inside-1_280_938)"/>
<mask id="path-5-inside-2_280_938" fill="white">
<path d="M157.332 146.932H165.938V155C165.938 157.761 163.699 160 160.938 160H157.332V146.932Z"/>
</mask>
<path d="M157.332 146.932H165.938H157.332ZM167.938 155C167.938 158.866 164.804 162 160.938 162H157.332V158H160.938C162.595 158 163.938 156.657 163.938 155H167.938ZM157.332 160V146.932V160ZM167.938 146.932V155C167.938 158.866 164.804 162 160.938 162V158C162.595 158 163.938 156.657 163.938 155V146.932H167.938Z" fill="white" mask="url(#path-5-inside-2_280_938)"/>
<rect x="54.4287" y="56.1379" width="76.0872" height="26.685" rx="4" stroke="white" stroke-width="2"/>
<path d="M105.655 64.0671C105.655 64.835 105.033 65.4575 104.265 65.4575C103.497 65.4575 102.875 64.835 102.875 64.0671C102.875 63.2992 103.497 62.6767 104.265 62.6767C105.033 62.6767 105.655 63.2992 105.655 64.0671Z" stroke="white" stroke-width="2"/>
<path d="M105.655 74.8867C105.655 75.6546 105.032 76.2771 104.264 76.2771C103.497 76.2771 102.874 75.6546 102.874 74.8867C102.874 74.1188 103.497 73.4963 104.264 73.4963C105.032 73.4963 105.655 74.1188 105.655 74.8867Z" stroke="white" stroke-width="2"/>
<path d="M125.097 64.0671C125.097 64.835 124.474 65.4575 123.706 65.4575C122.938 65.4575 122.316 64.835 122.316 64.0671C122.316 63.2992 122.938 62.6767 123.706 62.6767C124.474 62.6767 125.097 63.2992 125.097 64.0671Z" stroke="white" stroke-width="2"/>
<path d="M125.097 74.8867C125.097 75.6546 124.474 76.2771 123.706 76.2771C122.938 76.2771 122.316 75.6546 122.316 74.8867C122.316 74.1188 122.938 73.4963 123.706 73.4963C124.474 73.4963 125.097 74.1188 125.097 74.8867Z" stroke="white" stroke-width="2"/>
<path d="M43 143H48V147H43V143Z" stroke="white" stroke-width="2"/>
<path d="M54 143H59V148H54V143Z" stroke="white" stroke-width="2"/>
</svg>
