<svg width="90" height="114" viewBox="0 0 90 114" fill="none" xmlns="http://www.w3.org/2000/svg">
<rect x="29.6724" y="1.84961" width="29.8584" height="54.5487" stroke="white" stroke-width="2"/>
<path d="M18.7346 104.186L27.905 56.8054H61.2992L70.4696 104.186H18.7346Z" stroke="white" stroke-width="2"/>
<path d="M10.5576 104.593H78.6461V112.15H10.5576V104.593Z" stroke="white" stroke-width="2"/>
<path d="M4.7793 112.354H84.4253" stroke="white" stroke-width="2"/>
<path d="M3.98432 38.0795L22.5519 28.1326H66.6593L85.89 38.0795H3.98432Z" stroke="white" stroke-width="2"/>
<path d="M3.98432 11.7965L22.5519 1.84961H66.6593L85.89 11.7965H3.98432Z" stroke="white" stroke-width="2"/>
<path d="M4.18604 44.0623H13.3365V53.2127H4.18604V44.0623Z" stroke="white" stroke-width="2"/>
<path d="M8.76074 43.0623V39.08" stroke="white" stroke-width="2"/>
<path d="M4.18604 17.7788H13.3365V26.9293H4.18604V17.7788Z" stroke="white" stroke-width="2"/>
<path d="M8.76074 16.7788V12.7965" stroke="white" stroke-width="2"/>
<path d="M78.2568 17.7788H87.4073V26.9293H78.2568V17.7788Z" stroke="white" stroke-width="2"/>
<path d="M82.8315 16.7788V12.7965" stroke="white" stroke-width="2"/>
<path d="M78.2568 44.0623H87.4073V53.2127H78.2568V44.0623Z" stroke="white" stroke-width="2"/>
<path d="M82.8315 43.0623V39.08" stroke="white" stroke-width="2"/>
<line x1="23.0972" y1="79.4956" x2="66.106" y2="79.4956" stroke="white" stroke-width="2"/>
<path d="M23.894 79.2097L60.9294 57.3982" stroke="white" stroke-width="2"/>
<path d="M65.3098 79.3008L28.2744 57.3981" stroke="white" stroke-width="2"/>
<path d="M19.513 103.593L65.3088 80.4955" stroke="white" stroke-width="2"/>
<path d="M23.894 80.4956L69.6905 103.593" stroke="white" stroke-width="2"/>
</svg>
