<svg width="55" height="55" viewBox="0 0 55 55" fill="none" xmlns="http://www.w3.org/2000/svg">
<path d="M55 27.5C55 42.6878 42.6878 55 27.5 55C12.3122 55 0 42.6878 0 27.5C0 12.3122 12.3122 0 27.5 0C42.6878 0 55 12.3122 55 27.5Z" fill="#D9D9D9"/>
<path d="M28 26C25.8 26 24 25.3 22.6 23.9C21.2 22.5 20.5 20.7 20.5 18.5C20.5 16.3 21.2 14.5 22.6 13.1C24 11.7 25.8 11 28 11C30.2 11 32 11.7 33.4 13.1C34.8 14.5 35.5 16.3 35.5 18.5C35.5 20.7 34.8 22.5 33.4 23.9C32 25.3 30.2 26 28 26ZM12 42.05V37.35C12 36.0833 12.3167 35 12.95 34.1C13.5833 33.2 14.4 32.5167 15.4 32.05C17.6333 31.05 19.775 30.3 21.825 29.8C23.875 29.3 25.9333 29.05 28 29.05C30.0667 29.05 32.1167 29.3083 34.15 29.825C36.1833 30.3417 38.3153 31.0865 40.546 32.0595C41.5893 32.5305 42.4258 33.2133 43.0555 34.108C43.6852 35.0027 44 36.0833 44 37.35V42.05H12ZM15 39.05H41V37.35C41 36.8167 40.8417 36.3083 40.525 35.825C40.2083 35.3417 39.8167 34.9833 39.35 34.75C37.2167 33.7167 35.2667 33.0083 33.5 32.625C31.7333 32.2417 29.9 32.05 28 32.05C26.1 32.05 24.25 32.2417 22.45 32.625C20.65 33.0083 18.7 33.7167 16.6 34.75C16.1333 34.9833 15.75 35.3417 15.45 35.825C15.15 36.3083 15 36.8167 15 37.35V39.05ZM28 23C29.3 23 30.375 22.575 31.225 21.725C32.075 20.875 32.5 19.8 32.5 18.5C32.5 17.2 32.075 16.125 31.225 15.275C30.375 14.425 29.3 14 28 14C26.7 14 25.625 14.425 24.775 15.275C23.925 16.125 23.5 17.2 23.5 18.5C23.5 19.8 23.925 20.875 24.775 21.725C25.625 22.575 26.7 23 28 23Z" fill="black"/>
</svg>
